<?xml version="1.0" encoding="UTF-8" standalone="no"?>
<!DOCTYPE svg PUBLIC "-//W3C//DTD SVG 1.1//EN"
 "http://www.w3.org/Graphics/SVG/1.1/DTD/svg11.dtd">
<!-- Generated by graphviz version 2.43.0 (0)
 -->
<!-- Title: _39275056 Pages: 1 -->
<svg width="1188pt" height="835pt"
 viewBox="0.00 0.00 1188.00 835.00" xmlns="http://www.w3.org/2000/svg" xmlns:xlink="http://www.w3.org/1999/xlink">
<g id="graph0" class="graph" transform="scale(1 1) rotate(0) translate(4 831)">
<title>_39275056</title>
<polygon fill="white" stroke="transparent" points="-4,4 -4,-831 1184,-831 1184,4 -4,4"/>
<g id="clust1" class="cluster">
<title>cluster39275056diagram</title>
<polygon fill="none" stroke="black" points="8,-8 8,-819 1172,-819 1172,-8 8,-8"/>
<text text-anchor="middle" x="590" y="-803.8" font-family="Times,serif" font-size="14.00">nist_board_assembly</text>
</g>
<g id="clust4" class="cluster">
<title>cluster39275056subsystems</title>
<polygon fill="none" stroke="white" points="16,-16 16,-788 1164,-788 1164,-16 16,-16"/>
</g>
<!-- 40210528 -->
<g id="node1" class="node">
<title>40210528</title>
<polygon fill="none" stroke="black" points="24,-89 24,-779 511,-779 511,-89 24,-89"/>
<text text-anchor="middle" x="267.5" y="-763.8" font-family="Times,serif" font-size="14.00">plant</text>
<polyline fill="none" stroke="black" points="24,-756 511,-756 "/>
<text text-anchor="middle" x="121" y="-722.3" font-family="Times,serif" font-size="14.00">geometry_query</text>
<polyline fill="none" stroke="black" points="24,-696 218,-696 "/>
<text text-anchor="middle" x="121" y="-661.8" font-family="Times,serif" font-size="14.00">WorldModelInstance_actuation</text>
<polyline fill="none" stroke="black" points="24,-635 218,-635 "/>
<text text-anchor="middle" x="121" y="-601.3" font-family="Times,serif" font-size="14.00">DefaultModelInstance_actuation</text>
<polyline fill="none" stroke="black" points="24,-575 218,-575 "/>
<text text-anchor="middle" x="121" y="-540.8" font-family="Times,serif" font-size="14.00">ur5e_actuation</text>
<polyline fill="none" stroke="black" points="24,-514 218,-514 "/>
<text text-anchor="middle" x="121" y="-479.8" font-family="Times,serif" font-size="14.00">allegro_actuation</text>
<polyline fill="none" stroke="black" points="24,-453 218,-453 "/>
<text text-anchor="middle" x="121" y="-419.3" font-family="Times,serif" font-size="14.00">robot_table_actuation</text>
<polyline fill="none" stroke="black" points="24,-393 218,-393 "/>
<text text-anchor="middle" x="121" y="-358.8" font-family="Times,serif" font-size="14.00">work_table_actuation</text>
<polyline fill="none" stroke="black" points="24,-332 218,-332 "/>
<text text-anchor="middle" x="121" y="-297.8" font-family="Times,serif" font-size="14.00">nist_board_actuation</text>
<polyline fill="none" stroke="black" points="24,-271 218,-271 "/>
<text text-anchor="middle" x="121" y="-237.3" font-family="Times,serif" font-size="14.00">actuation</text>
<polyline fill="none" stroke="black" points="24,-211 218,-211 "/>
<text text-anchor="middle" x="121" y="-176.8" font-family="Times,serif" font-size="14.00">applied_generalized_force</text>
<polyline fill="none" stroke="black" points="24,-150 218,-150 "/>
<text text-anchor="middle" x="121" y="-116.3" font-family="Times,serif" font-size="14.00">applied_spatial_force</text>
<polyline fill="none" stroke="black" points="218,-89 218,-756 "/>
<text text-anchor="middle" x="364.5" y="-740.8" font-family="Times,serif" font-size="14.00">geometry_pose</text>
<polyline fill="none" stroke="black" points="218,-733 511,-733 "/>
<text text-anchor="middle" x="364.5" y="-717.8" font-family="Times,serif" font-size="14.00">state</text>
<polyline fill="none" stroke="black" points="218,-710 511,-710 "/>
<text text-anchor="middle" x="364.5" y="-694.8" font-family="Times,serif" font-size="14.00">body_poses</text>
<polyline fill="none" stroke="black" points="218,-687 511,-687 "/>
<text text-anchor="middle" x="364.5" y="-671.8" font-family="Times,serif" font-size="14.00">spatial_velocities</text>
<polyline fill="none" stroke="black" points="218,-664 511,-664 "/>
<text text-anchor="middle" x="364.5" y="-648.8" font-family="Times,serif" font-size="14.00">spatial_accelerations</text>
<polyline fill="none" stroke="black" points="218,-641 511,-641 "/>
<text text-anchor="middle" x="364.5" y="-625.8" font-family="Times,serif" font-size="14.00">generalized_acceleration</text>
<polyline fill="none" stroke="black" points="218,-618 511,-618 "/>
<text text-anchor="middle" x="364.5" y="-602.8" font-family="Times,serif" font-size="14.00">WorldModelInstance_state</text>
<polyline fill="none" stroke="black" points="218,-595 511,-595 "/>
<text text-anchor="middle" x="364.5" y="-579.8" font-family="Times,serif" font-size="14.00">WorldModelInstance_generalized_acceleration</text>
<polyline fill="none" stroke="black" points="218,-572 511,-572 "/>
<text text-anchor="middle" x="364.5" y="-556.8" font-family="Times,serif" font-size="14.00">DefaultModelInstance_state</text>
<polyline fill="none" stroke="black" points="218,-549 511,-549 "/>
<text text-anchor="middle" x="364.5" y="-533.8" font-family="Times,serif" font-size="14.00">DefaultModelInstance_generalized_acceleration</text>
<polyline fill="none" stroke="black" points="218,-526 511,-526 "/>
<text text-anchor="middle" x="364.5" y="-510.8" font-family="Times,serif" font-size="14.00">ur5e_state</text>
<polyline fill="none" stroke="black" points="218,-503 511,-503 "/>
<text text-anchor="middle" x="364.5" y="-487.8" font-family="Times,serif" font-size="14.00">ur5e_generalized_acceleration</text>
<polyline fill="none" stroke="black" points="218,-480 511,-480 "/>
<text text-anchor="middle" x="364.5" y="-464.8" font-family="Times,serif" font-size="14.00">allegro_state</text>
<polyline fill="none" stroke="black" points="218,-457 511,-457 "/>
<text text-anchor="middle" x="364.5" y="-441.8" font-family="Times,serif" font-size="14.00">allegro_generalized_acceleration</text>
<polyline fill="none" stroke="black" points="218,-434 511,-434 "/>
<text text-anchor="middle" x="364.5" y="-418.8" font-family="Times,serif" font-size="14.00">robot_table_state</text>
<polyline fill="none" stroke="black" points="218,-411 511,-411 "/>
<text text-anchor="middle" x="364.5" y="-395.8" font-family="Times,serif" font-size="14.00">robot_table_generalized_acceleration</text>
<polyline fill="none" stroke="black" points="218,-388 511,-388 "/>
<text text-anchor="middle" x="364.5" y="-372.8" font-family="Times,serif" font-size="14.00">work_table_state</text>
<polyline fill="none" stroke="black" points="218,-365 511,-365 "/>
<text text-anchor="middle" x="364.5" y="-349.8" font-family="Times,serif" font-size="14.00">work_table_generalized_acceleration</text>
<polyline fill="none" stroke="black" points="218,-342 511,-342 "/>
<text text-anchor="middle" x="364.5" y="-326.8" font-family="Times,serif" font-size="14.00">nist_board_state</text>
<polyline fill="none" stroke="black" points="218,-319 511,-319 "/>
<text text-anchor="middle" x="364.5" y="-303.8" font-family="Times,serif" font-size="14.00">nist_board_generalized_acceleration</text>
<polyline fill="none" stroke="black" points="218,-296 511,-296 "/>
<text text-anchor="middle" x="364.5" y="-280.8" font-family="Times,serif" font-size="14.00">WorldModelInstance_generalized_contact_forces</text>
<polyline fill="none" stroke="black" points="218,-273 511,-273 "/>
<text text-anchor="middle" x="364.5" y="-257.8" font-family="Times,serif" font-size="14.00">DefaultModelInstance_generalized_contact_forces</text>
<polyline fill="none" stroke="black" points="218,-250 511,-250 "/>
<text text-anchor="middle" x="364.5" y="-234.8" font-family="Times,serif" font-size="14.00">ur5e_generalized_contact_forces</text>
<polyline fill="none" stroke="black" points="218,-227 511,-227 "/>
<text text-anchor="middle" x="364.5" y="-211.8" font-family="Times,serif" font-size="14.00">allegro_generalized_contact_forces</text>
<polyline fill="none" stroke="black" points="218,-204 511,-204 "/>
<text text-anchor="middle" x="364.5" y="-188.8" font-family="Times,serif" font-size="14.00">robot_table_generalized_contact_forces</text>
<polyline fill="none" stroke="black" points="218,-181 511,-181 "/>
<text text-anchor="middle" x="364.5" y="-165.8" font-family="Times,serif" font-size="14.00">work_table_generalized_contact_forces</text>
<polyline fill="none" stroke="black" points="218,-158 511,-158 "/>
<text text-anchor="middle" x="364.5" y="-142.8" font-family="Times,serif" font-size="14.00">nist_board_generalized_contact_forces</text>
<polyline fill="none" stroke="black" points="218,-135 511,-135 "/>
<text text-anchor="middle" x="364.5" y="-119.8" font-family="Times,serif" font-size="14.00">reaction_forces</text>
<polyline fill="none" stroke="black" points="218,-112 511,-112 "/>
<text text-anchor="middle" x="364.5" y="-96.8" font-family="Times,serif" font-size="14.00">contact_results</text>
</g>
<!-- 39649072 -->
<g id="node2" class="node">
<title>39649072</title>
<polygon fill="none" stroke="black" points="585.5,-710.5 585.5,-779.5 755.5,-779.5 755.5,-710.5 585.5,-710.5"/>
<text text-anchor="middle" x="670.5" y="-764.3" font-family="Times,serif" font-size="14.00">scene_graph</text>
<polyline fill="none" stroke="black" points="585.5,-756.5 755.5,-756.5 "/>
<text text-anchor="middle" x="647" y="-741.3" font-family="Times,serif" font-size="14.00">plant_pose</text>
<polyline fill="none" stroke="black" points="585.5,-733.5 708.5,-733.5 "/>
<text text-anchor="middle" x="647" y="-718.3" font-family="Times,serif" font-size="14.00">plant_configuration</text>
<polyline fill="none" stroke="black" points="708.5,-710.5 708.5,-756.5 "/>
<text text-anchor="middle" x="732" y="-729.8" font-family="Times,serif" font-size="14.00">query</text>
</g>
<!-- 40210528&#45;&gt;39649072 -->
<g id="edge1" class="edge">
<title>40210528:y0&#45;&gt;39649072:u0</title>
<path fill="none" stroke="black" d="M511,-745C539.97,-745 549.67,-745 574.27,-745"/>
<polygon fill="black" stroke="black" points="574.5,-748.5 584.5,-745 574.5,-741.5 574.5,-748.5"/>
</g>
<!-- 45550208 -->
<g id="node3" class="node">
<title>45550208</title>
<polygon fill="none" stroke="black" points="547,-645 547,-691 794,-691 794,-645 547,-645"/>
<text text-anchor="middle" x="670.5" y="-675.8" font-family="Times,serif" font-size="14.00">__main__.PrintPose@0000000002b70a80</text>
<polyline fill="none" stroke="black" points="547,-668 794,-668 "/>
<text text-anchor="middle" x="623.5" y="-652.8" font-family="Times,serif" font-size="14.00">body_poses</text>
<polyline fill="none" stroke="black" points="700,-645 700,-668 "/>
<text text-anchor="middle" x="747" y="-652.8" font-family="Times,serif" font-size="14.00"> </text>
</g>
<!-- 40210528&#45;&gt;45550208 -->
<g id="edge4" class="edge">
<title>40210528:y2&#45;&gt;45550208:u0</title>
<path fill="none" stroke="black" d="M511,-699C531.64,-699 525.69,-669.51 537.19,-659.37"/>
<polygon fill="black" stroke="black" points="538.68,-662.56 547,-656 536.41,-655.94 538.68,-662.56"/>
</g>
<!-- 39649072&#45;&gt;40210528 -->
<g id="edge2" class="edge">
<title>39649072:y0&#45;&gt;40210528:u0</title>
<path fill="none" stroke="black" d="M732.5,-709C732.5,-700.83 593.09,-706.98 585.5,-710 543.43,-726.74 553.13,-762.9 511,-779.5 410.21,-819.21 100.82,-855.38 23.5,-779.5 9.44,-765.7 1.67,-738.07 12.92,-728.98"/>
<polygon fill="black" stroke="black" points="13.99,-732.31 22.5,-726 11.91,-725.62 13.99,-732.31"/>
</g>
<!-- 42046704 -->
<g id="node4" class="node">
<title>42046704</title>
<polygon fill="none" stroke="black" points="830,-722 830,-768 1156,-768 1156,-722 830,-722"/>
<text text-anchor="middle" x="993" y="-752.8" font-family="Times,serif" font-size="14.00">drake/geometry/MeshcatVisualizer@00000000028194f0</text>
<polyline fill="none" stroke="black" points="830,-745 1156,-745 "/>
<text text-anchor="middle" x="928" y="-729.8" font-family="Times,serif" font-size="14.00">query_object</text>
<polyline fill="none" stroke="black" points="1026,-722 1026,-745 "/>
<text text-anchor="middle" x="1091" y="-729.8" font-family="Times,serif" font-size="14.00"> </text>
</g>
<!-- 39649072&#45;&gt;42046704 -->
<g id="edge3" class="edge">
<title>39649072:y0&#45;&gt;42046704:u0</title>
<path fill="none" stroke="black" d="M756.5,-733C785.47,-733 795.17,-733 819.77,-733"/>
<polygon fill="black" stroke="black" points="820,-736.5 830,-733 820,-729.5 820,-736.5"/>
</g>
<!-- 59905856 -->
<g id="node5" class="node">
<title>59905856</title>
<polygon fill="none" stroke="black" points="95.5,-24 95.5,-70 439.5,-70 439.5,-24 95.5,-24"/>
<text text-anchor="middle" x="267.5" y="-54.8" font-family="Times,serif" font-size="14.00">drake/multibody/meshcat/JointSliders@0000000003921740</text>
<polyline fill="none" stroke="black" points="95.5,-47 439.5,-47 "/>
<text text-anchor="middle" x="170" y="-31.8" font-family="Times,serif" font-size="14.00"> </text>
<polyline fill="none" stroke="black" points="244.5,-24 244.5,-47 "/>
<text text-anchor="middle" x="342" y="-31.8" font-family="Times,serif" font-size="14.00">positions</text>
</g>
</g>
</svg>
